<?xml version="1.0" standalone="no"?>
<svg viewBox="0 0 200 200" xmlns="http://www.w3.org/2000/svg">
  <path fill="#FFFF46" d="M42.7,-72.8C56.3,-66.1,69,-56.7,72.7,-44.1C76.4,-31.5,71,-15.7,69.9,-0.6C68.8,14.5,72,28.9,66.6,38.5C61.1,48,47,52.5,34.5,61.8C22,71.1,11,85.1,-0.4,85.7C-11.7,86.3,-23.4,73.6,-34.6,63.6C-45.8,53.5,-56.5,46.2,-66.8,36C-77.2,25.9,-87.1,12.9,-86.9,0.1C-86.7,-12.7,-76.4,-25.4,-68.2,-39.2C-59.9,-53,-53.8,-67.8,-42.8,-76C-31.8,-84.1,-15.9,-85.7,-0.7,-84.5C14.5,-83.3,29.1,-79.5,42.7,-72.8Z" transform="translate(100 100)" />
</svg>
